<svg id="Layer_1" data-name="Layer 1" xmlns="http://www.w3.org/2000/svg" viewBox="0 0 244.28 46.1"><path d="M848.32,517.46V492a23.17,23.17,0,0,1,0-2.5,4.13,4.13,0,0,1,4.1-3.91,3.9,3.9,0,0,1,3.88,4.06c.08,6.75,0,13.5,0,20.25,0,5.08,0,10.16,0,15.25,0,2.65-.37,5-3.18,6.17-2.18.87-4.15,0-6.38-2.74l-22.05-26.85c-.41-.5-.86-1-1.8-2V503q0,11.38,0,22.75a13.77,13.77,0,0,1-.18,2.73,3.61,3.61,0,0,1-3.43,3.1,3.66,3.66,0,0,1-4.11-2.54,8.13,8.13,0,0,1-.37-2.7q0-17.12,0-34.24a10.81,10.81,0,0,1,.3-2.72,4.55,4.55,0,0,1,7.6-2.5,18.68,18.68,0,0,1,2.36,2.58l21.23,25.9C846.84,515.89,847.36,516.41,848.32,517.46Z" transform="translate(-662.58 -485.58)"/><path d="M804.84,510c-1.05,13.11-11.88,22.58-24.6,21.53a22.94,22.94,0,0,1,2.72-45.8C796.21,486.49,805.85,497.4,804.84,510ZM767.1,508.7a14.88,14.88,0,1,0,14.87-15A15,15,0,0,0,767.1,508.7Z" transform="translate(-662.58 -485.58)"/><path d="M724.5,523.57c8,0,15.21,0,22.46,0,2.58,0,4.16,1.32,4.43,3.48a3.83,3.83,0,0,1-3.86,4.5q-14.88.09-29.75,0a4.78,4.78,0,0,1-4.53-3c-1-2.3-.16-4.23,1.34-6q7.21-8.3,14.47-16.56l10.64-12.19c-1.1-.09-1.78-.2-2.47-.2h-19c-3.58,0-5.46-1.43-5.4-4.07s1.95-4,5.3-4c9,0,18,0,27,0,2.48,0,4.72.47,5.86,2.93s.07,4.65-1.63,6.58q-11.05,12.58-22.05,25.21C726.5,521.23,725.72,522.16,724.5,523.57Z" transform="translate(-662.58 -485.58)"/><path d="M876.21,523.57h2.84c7.67,0,15.33,0,23,0,3.12,0,4.87,1.54,4.8,4.13s-1.75,3.88-4.79,3.88q-13.37,0-26.74,0c-4.67,0-7.35-2.56-7.38-7.25q-.12-15.74,0-31.49c0-4.66,2.76-7.23,7.41-7.24q13.36-.06,26.74,0c3,0,4.71,1.46,4.76,3.95s-1.66,4.07-4.83,4.08c-7.67,0-15.33,0-23,0h-2.81Z" transform="translate(-662.58 -485.58)"/><path d="M670.77,493.63v29.94h25.47c3.36,0,5.24,1.42,5.29,3.95s-1.84,4.07-5.15,4.08q-13.11,0-26.23,0c-5,0-7.52-2.49-7.54-7.52q-.06-15.48,0-31c0-5,2.61-7.49,7.6-7.5,9,0,18,0,27,0a4,4,0,0,1,4.35,4.14c-.08,2.25-1.76,3.76-4.35,3.86-.66,0-1.33,0-2,0H670.77Z" transform="translate(-662.58 -485.58)"/><path d="M684.65,512.59c-1.33,0-2.66.08-4,0a4,4,0,0,1-.08-7.94,80.49,80.49,0,0,1,8.22,0,3.8,3.8,0,0,1,3.58,4,3.84,3.84,0,0,1-3.74,3.89C687.31,512.67,686,512.59,684.65,512.59Z" transform="translate(-662.58 -485.58)"/><path d="M889.91,512.59c-1.33,0-2.67.08-4,0a4,4,0,0,1-.06-7.92,80.49,80.49,0,0,1,8.22,0,4,4,0,0,1-.18,7.94c-1.33.08-2.66,0-4,0Z" transform="translate(-662.58 -485.58)"/></svg>